<mxfile host="95be5f44-d28c-4633-bfaf-e4b97bc656ac" modified="2020-09-27T07:15:12.295Z" agent="5.0 (Windows NT 10.0; Win64; x64) AppleWebKit/537.36 (KHTML, like Gecko) Code/1.49.2 Chrome/83.0.4103.122 Electron/9.2.1 Safari/537.36" etag="0ceBd451OkaqdLIlRpH5" version="13.1.3">
    <diagram id="C5RBs43oDa-KdzZeNtuy" name="Page-1">
        <mxGraphModel dx="734" dy="617" grid="1" gridSize="10" guides="1" tooltips="1" connect="1" arrows="1" fold="1" page="1" pageScale="1" pageWidth="827" pageHeight="1169" math="0" shadow="0">
            <root>
                <mxCell id="WIyWlLk6GJQsqaUBKTNV-0"/>
                <mxCell id="WIyWlLk6GJQsqaUBKTNV-1" parent="WIyWlLk6GJQsqaUBKTNV-0"/>
                <mxCell id="lP4mGNeKe8PO_aw0l6Am-0" value="" style="rounded=1;whiteSpace=wrap;html=1;arcSize=4;fillColor=#f5f5f5;strokeColor=#666666;fontColor=#333333;" parent="WIyWlLk6GJQsqaUBKTNV-1" vertex="1">
                    <mxGeometry x="80" y="40" width="720" height="560" as="geometry"/>
                </mxCell>
                <mxCell id="lP4mGNeKe8PO_aw0l6Am-1" value="&lt;font style=&quot;font-size: 22px&quot;&gt;COVID-19 Tracker&lt;/font&gt;" style="text;html=1;resizable=0;autosize=1;align=center;verticalAlign=middle;points=[];fillColor=none;strokeColor=none;rounded=0;fontStyle=1;fontColor=#1C1C1C;" parent="WIyWlLk6GJQsqaUBKTNV-1" vertex="1">
                    <mxGeometry x="110" y="90" width="200" height="20" as="geometry"/>
                </mxCell>
                <mxCell id="lP4mGNeKe8PO_aw0l6Am-3" value="&lt;font style=&quot;font-size: 16px&quot;&gt;Worldwide&lt;/font&gt;" style="rounded=1;whiteSpace=wrap;html=1;" parent="WIyWlLk6GJQsqaUBKTNV-1" vertex="1">
                    <mxGeometry x="364" y="90" width="170" height="30" as="geometry"/>
                </mxCell>
                <mxCell id="lP4mGNeKe8PO_aw0l6Am-4" value="" style="rounded=1;whiteSpace=wrap;html=1;labelPosition=center;verticalLabelPosition=middle;align=center;verticalAlign=middle;" parent="WIyWlLk6GJQsqaUBKTNV-1" vertex="1">
                    <mxGeometry x="110" y="150" width="120" height="60" as="geometry"/>
                </mxCell>
                <mxCell id="lP4mGNeKe8PO_aw0l6Am-5" value="&lt;font style=&quot;font-size: 12px&quot;&gt;coronavirus cases&lt;/font&gt;" style="text;html=1;strokeColor=none;fillColor=none;align=center;verticalAlign=middle;whiteSpace=wrap;rounded=0;" parent="WIyWlLk6GJQsqaUBKTNV-1" vertex="1">
                    <mxGeometry x="110" y="150" width="100" height="20" as="geometry"/>
                </mxCell>
                <mxCell id="lP4mGNeKe8PO_aw0l6Am-6" value="&lt;font style=&quot;font-size: 12px&quot;&gt;+2,000&lt;/font&gt;" style="text;html=1;strokeColor=none;fillColor=none;align=left;verticalAlign=middle;whiteSpace=wrap;rounded=0;" parent="WIyWlLk6GJQsqaUBKTNV-1" vertex="1">
                    <mxGeometry x="110" y="170" width="100" height="20" as="geometry"/>
                </mxCell>
                <mxCell id="lP4mGNeKe8PO_aw0l6Am-7" value="&lt;font style=&quot;font-size: 12px&quot;&gt;1.2 M total&lt;/font&gt;" style="text;html=1;strokeColor=none;fillColor=none;align=left;verticalAlign=middle;whiteSpace=wrap;rounded=0;" parent="WIyWlLk6GJQsqaUBKTNV-1" vertex="1">
                    <mxGeometry x="110" y="190" width="100" height="20" as="geometry"/>
                </mxCell>
                <mxCell id="lP4mGNeKe8PO_aw0l6Am-9" value="" style="rounded=1;whiteSpace=wrap;html=1;labelPosition=center;verticalLabelPosition=middle;align=center;verticalAlign=middle;" parent="WIyWlLk6GJQsqaUBKTNV-1" vertex="1">
                    <mxGeometry x="270" y="150" width="120" height="60" as="geometry"/>
                </mxCell>
                <mxCell id="lP4mGNeKe8PO_aw0l6Am-10" value="&lt;font style=&quot;font-size: 12px&quot;&gt;Recovered&lt;/font&gt;" style="text;html=1;strokeColor=none;fillColor=none;align=left;verticalAlign=middle;whiteSpace=wrap;rounded=0;" parent="WIyWlLk6GJQsqaUBKTNV-1" vertex="1">
                    <mxGeometry x="270" y="150" width="100" height="20" as="geometry"/>
                </mxCell>
                <mxCell id="lP4mGNeKe8PO_aw0l6Am-11" value="&lt;font style=&quot;font-size: 12px&quot;&gt;+2,000&lt;/font&gt;" style="text;html=1;strokeColor=none;fillColor=none;align=left;verticalAlign=middle;whiteSpace=wrap;rounded=0;" parent="WIyWlLk6GJQsqaUBKTNV-1" vertex="1">
                    <mxGeometry x="270" y="170" width="100" height="20" as="geometry"/>
                </mxCell>
                <mxCell id="lP4mGNeKe8PO_aw0l6Am-12" value="&lt;font style=&quot;font-size: 12px&quot;&gt;1.2 M total&lt;/font&gt;" style="text;html=1;strokeColor=none;fillColor=none;align=left;verticalAlign=middle;whiteSpace=wrap;rounded=0;" parent="WIyWlLk6GJQsqaUBKTNV-1" vertex="1">
                    <mxGeometry x="270" y="190" width="100" height="20" as="geometry"/>
                </mxCell>
                <mxCell id="lP4mGNeKe8PO_aw0l6Am-13" value="" style="rounded=1;whiteSpace=wrap;html=1;labelPosition=center;verticalLabelPosition=middle;align=center;verticalAlign=middle;" parent="WIyWlLk6GJQsqaUBKTNV-1" vertex="1">
                    <mxGeometry x="414" y="150" width="120" height="60" as="geometry"/>
                </mxCell>
                <mxCell id="lP4mGNeKe8PO_aw0l6Am-14" value="&lt;font style=&quot;font-size: 12px&quot;&gt;Death&lt;/font&gt;" style="text;html=1;strokeColor=none;fillColor=none;align=left;verticalAlign=middle;whiteSpace=wrap;rounded=0;" parent="WIyWlLk6GJQsqaUBKTNV-1" vertex="1">
                    <mxGeometry x="414" y="150" width="100" height="20" as="geometry"/>
                </mxCell>
                <mxCell id="lP4mGNeKe8PO_aw0l6Am-15" value="&lt;font style=&quot;font-size: 12px&quot;&gt;+2,000&lt;/font&gt;" style="text;html=1;strokeColor=none;fillColor=none;align=left;verticalAlign=middle;whiteSpace=wrap;rounded=0;" parent="WIyWlLk6GJQsqaUBKTNV-1" vertex="1">
                    <mxGeometry x="414" y="170" width="100" height="20" as="geometry"/>
                </mxCell>
                <mxCell id="lP4mGNeKe8PO_aw0l6Am-16" value="&lt;font style=&quot;font-size: 12px&quot;&gt;1.2 M total&lt;/font&gt;" style="text;html=1;strokeColor=none;fillColor=none;align=left;verticalAlign=middle;whiteSpace=wrap;rounded=0;" parent="WIyWlLk6GJQsqaUBKTNV-1" vertex="1">
                    <mxGeometry x="414" y="190" width="100" height="20" as="geometry"/>
                </mxCell>
                <mxCell id="lP4mGNeKe8PO_aw0l6Am-18" value="" style="rounded=1;whiteSpace=wrap;html=1;align=left;" parent="WIyWlLk6GJQsqaUBKTNV-1" vertex="1">
                    <mxGeometry x="110" y="250" width="430" height="340" as="geometry"/>
                </mxCell>
                <mxCell id="lP4mGNeKe8PO_aw0l6Am-19" value="" style="shape=image;html=1;verticalAlign=top;verticalLabelPosition=bottom;labelBackgroundColor=#ffffff;imageAspect=0;aspect=fixed;image=https://cdn3.iconfinder.com/data/icons/logos-brands-3/24/logo_brand_brands_logos_maps_google-128.png;align=left;" parent="WIyWlLk6GJQsqaUBKTNV-1" vertex="1">
                    <mxGeometry x="230" y="330" width="168" height="168" as="geometry"/>
                </mxCell>
                <mxCell id="lP4mGNeKe8PO_aw0l6Am-20" value="" style="rounded=1;whiteSpace=wrap;html=1;align=left;" parent="WIyWlLk6GJQsqaUBKTNV-1" vertex="1">
                    <mxGeometry x="560" y="90" width="230" height="500" as="geometry"/>
                </mxCell>
                <mxCell id="lP4mGNeKe8PO_aw0l6Am-21" value="&lt;b&gt;Cases By Country&lt;/b&gt;" style="text;html=1;strokeColor=none;fillColor=none;align=center;verticalAlign=middle;whiteSpace=wrap;rounded=0;fontSize=15;" parent="WIyWlLk6GJQsqaUBKTNV-1" vertex="1">
                    <mxGeometry x="600" y="100" width="140" height="20" as="geometry"/>
                </mxCell>
                <mxCell id="lP4mGNeKe8PO_aw0l6Am-22" value="worldwide New Cases" style="text;html=1;strokeColor=none;fillColor=none;align=center;verticalAlign=middle;whiteSpace=wrap;rounded=0;fontSize=15;fontStyle=1" parent="WIyWlLk6GJQsqaUBKTNV-1" vertex="1">
                    <mxGeometry x="590" y="390" width="160" height="20" as="geometry"/>
                </mxCell>
                <mxCell id="lP4mGNeKe8PO_aw0l6Am-23" value="" style="fillColor=#10739E;strokeColor=none;fontSize=15;align=left;" parent="WIyWlLk6GJQsqaUBKTNV-1" vertex="1">
                    <mxGeometry x="590" y="470" width="30" height="100" as="geometry"/>
                </mxCell>
                <mxCell id="lP4mGNeKe8PO_aw0l6Am-24" value="" style="shape=mxgraph.arrows2.arrow;dy=0.4;dx=16;notch=0;direction=north;fillColor=#1699D3;strokeColor=none;" parent="lP4mGNeKe8PO_aw0l6Am-23" vertex="1">
                    <mxGeometry x="3" y="30" width="24" height="70" as="geometry"/>
                </mxCell>
                <mxCell id="lP4mGNeKe8PO_aw0l6Am-25" value="Label" style="text;html=1;align=center;verticalAlign=middle;whiteSpace=wrap;fontColor=#FFFFFF;fontSize=10;" parent="lP4mGNeKe8PO_aw0l6Am-23" vertex="1">
                    <mxGeometry width="30" height="20" as="geometry"/>
                </mxCell>
                <mxCell id="lP4mGNeKe8PO_aw0l6Am-26" value="" style="fillColor=#F2931E;strokeColor=none;fontSize=15;align=left;" parent="WIyWlLk6GJQsqaUBKTNV-1" vertex="1">
                    <mxGeometry x="625" y="450" width="30" height="120" as="geometry"/>
                </mxCell>
                <mxCell id="lP4mGNeKe8PO_aw0l6Am-27" value="" style="shape=mxgraph.arrows2.arrow;dy=0.4;dx=16;notch=0;direction=south;fillColor=#F5AB50;strokeColor=none;" parent="lP4mGNeKe8PO_aw0l6Am-26" vertex="1">
                    <mxGeometry x="3" width="24" height="80" as="geometry"/>
                </mxCell>
                <mxCell id="lP4mGNeKe8PO_aw0l6Am-28" value="Label" style="text;html=1;align=center;verticalAlign=middle;whiteSpace=wrap;fontColor=#FFFFFF;fontSize=10;" parent="lP4mGNeKe8PO_aw0l6Am-26" vertex="1">
                    <mxGeometry width="30" height="20" as="geometry"/>
                </mxCell>
                <mxCell id="lP4mGNeKe8PO_aw0l6Am-29" value="" style="fillColor=#AE4132;strokeColor=none;fontSize=15;align=left;" parent="WIyWlLk6GJQsqaUBKTNV-1" vertex="1">
                    <mxGeometry x="660" y="440" width="30" height="130" as="geometry"/>
                </mxCell>
                <mxCell id="lP4mGNeKe8PO_aw0l6Am-30" value="" style="shape=mxgraph.arrows2.arrow;dy=0.4;dx=16;notch=0;direction=north;fillColor=#E85642;strokeColor=none;" parent="lP4mGNeKe8PO_aw0l6Am-29" vertex="1">
                    <mxGeometry x="3" y="80" width="24" height="50" as="geometry"/>
                </mxCell>
                <mxCell id="lP4mGNeKe8PO_aw0l6Am-31" value="Label" style="text;html=1;align=center;verticalAlign=middle;whiteSpace=wrap;fontColor=#FFFFFF;fontSize=10;" parent="lP4mGNeKe8PO_aw0l6Am-29" vertex="1">
                    <mxGeometry width="30" height="20" as="geometry"/>
                </mxCell>
                <mxCell id="lP4mGNeKe8PO_aw0l6Am-32" value="" style="fillColor=#12AAB5;strokeColor=none;fontSize=15;align=left;" parent="WIyWlLk6GJQsqaUBKTNV-1" vertex="1">
                    <mxGeometry x="695" y="490" width="30" height="80" as="geometry"/>
                </mxCell>
                <mxCell id="lP4mGNeKe8PO_aw0l6Am-33" value="" style="shape=mxgraph.arrows2.arrow;dy=0.4;dx=16;notch=0;direction=south;fillColor=#64BBE2;strokeColor=none;" parent="lP4mGNeKe8PO_aw0l6Am-32" vertex="1">
                    <mxGeometry x="3" width="24" height="30" as="geometry"/>
                </mxCell>
                <mxCell id="lP4mGNeKe8PO_aw0l6Am-34" value="Label" style="text;html=1;align=center;verticalAlign=middle;whiteSpace=wrap;fontColor=#FFFFFF;fontSize=10;" parent="lP4mGNeKe8PO_aw0l6Am-32" vertex="1">
                    <mxGeometry width="30" height="20" as="geometry"/>
                </mxCell>
                <mxCell id="lP4mGNeKe8PO_aw0l6Am-35" value="" style="fillColor=#23445D;strokeColor=none;fontSize=15;align=left;" parent="WIyWlLk6GJQsqaUBKTNV-1" vertex="1">
                    <mxGeometry x="730" y="500" width="30" height="70" as="geometry"/>
                </mxCell>
                <mxCell id="lP4mGNeKe8PO_aw0l6Am-36" value="" style="shape=mxgraph.arrows2.arrow;dy=0.4;dx=16;notch=0;direction=north;fillColor=#2F5B7C;strokeColor=none;" parent="lP4mGNeKe8PO_aw0l6Am-35" vertex="1">
                    <mxGeometry x="3" y="10" width="24" height="60" as="geometry"/>
                </mxCell>
                <mxCell id="lP4mGNeKe8PO_aw0l6Am-37" value="Label" style="text;html=1;align=center;verticalAlign=middle;whiteSpace=wrap;fontColor=#FFFFFF;fontSize=10;" parent="lP4mGNeKe8PO_aw0l6Am-35" vertex="1">
                    <mxGeometry width="30" height="20" as="geometry"/>
                </mxCell>
                <mxCell id="lP4mGNeKe8PO_aw0l6Am-38" value="" style="shape=table;html=1;whiteSpace=wrap;startSize=0;container=1;collapsible=0;childLayout=tableLayout;columnLines=0;rowLines=0;fontSize=15;align=left;" parent="WIyWlLk6GJQsqaUBKTNV-1" vertex="1">
                    <mxGeometry x="593" y="140" width="180" height="230" as="geometry"/>
                </mxCell>
                <mxCell id="lP4mGNeKe8PO_aw0l6Am-39" value="" style="shape=partialRectangle;html=1;whiteSpace=wrap;collapsible=0;dropTarget=0;pointerEvents=0;fillColor=none;top=0;left=0;bottom=0;right=0;points=[[0,0.5],[1,0.5]];portConstraint=eastwest;" parent="lP4mGNeKe8PO_aw0l6Am-38" vertex="1">
                    <mxGeometry width="180" height="77" as="geometry"/>
                </mxCell>
                <mxCell id="lP4mGNeKe8PO_aw0l6Am-40" value="Value 1" style="shape=partialRectangle;html=1;whiteSpace=wrap;connectable=0;fillColor=none;top=0;left=0;bottom=0;right=0;overflow=hidden;" parent="lP4mGNeKe8PO_aw0l6Am-39" vertex="1">
                    <mxGeometry width="60" height="77" as="geometry"/>
                </mxCell>
                <mxCell id="lP4mGNeKe8PO_aw0l6Am-41" value="Value 2" style="shape=partialRectangle;html=1;whiteSpace=wrap;connectable=0;fillColor=none;top=0;left=0;bottom=0;right=0;overflow=hidden;" parent="lP4mGNeKe8PO_aw0l6Am-39" vertex="1">
                    <mxGeometry x="60" width="60" height="77" as="geometry"/>
                </mxCell>
                <mxCell id="lP4mGNeKe8PO_aw0l6Am-42" value="Value 3" style="shape=partialRectangle;html=1;whiteSpace=wrap;connectable=0;fillColor=none;top=0;left=0;bottom=0;right=0;overflow=hidden;" parent="lP4mGNeKe8PO_aw0l6Am-39" vertex="1">
                    <mxGeometry x="120" width="60" height="77" as="geometry"/>
                </mxCell>
                <mxCell id="lP4mGNeKe8PO_aw0l6Am-43" value="" style="shape=partialRectangle;html=1;whiteSpace=wrap;collapsible=0;dropTarget=0;pointerEvents=0;fillColor=none;top=0;left=0;bottom=0;right=0;points=[[0,0.5],[1,0.5]];portConstraint=eastwest;" parent="lP4mGNeKe8PO_aw0l6Am-38" vertex="1">
                    <mxGeometry y="77" width="180" height="76" as="geometry"/>
                </mxCell>
                <mxCell id="lP4mGNeKe8PO_aw0l6Am-44" value="Value 4" style="shape=partialRectangle;html=1;whiteSpace=wrap;connectable=0;fillColor=none;top=0;left=0;bottom=0;right=0;overflow=hidden;" parent="lP4mGNeKe8PO_aw0l6Am-43" vertex="1">
                    <mxGeometry width="60" height="76" as="geometry"/>
                </mxCell>
                <mxCell id="lP4mGNeKe8PO_aw0l6Am-45" value="Value 5" style="shape=partialRectangle;html=1;whiteSpace=wrap;connectable=0;fillColor=none;top=0;left=0;bottom=0;right=0;overflow=hidden;" parent="lP4mGNeKe8PO_aw0l6Am-43" vertex="1">
                    <mxGeometry x="60" width="60" height="76" as="geometry"/>
                </mxCell>
                <mxCell id="lP4mGNeKe8PO_aw0l6Am-46" value="Value 6" style="shape=partialRectangle;html=1;whiteSpace=wrap;connectable=0;fillColor=none;top=0;left=0;bottom=0;right=0;overflow=hidden;" parent="lP4mGNeKe8PO_aw0l6Am-43" vertex="1">
                    <mxGeometry x="120" width="60" height="76" as="geometry"/>
                </mxCell>
                <mxCell id="lP4mGNeKe8PO_aw0l6Am-47" value="" style="shape=partialRectangle;html=1;whiteSpace=wrap;collapsible=0;dropTarget=0;pointerEvents=0;fillColor=none;top=0;left=0;bottom=0;right=0;points=[[0,0.5],[1,0.5]];portConstraint=eastwest;" parent="lP4mGNeKe8PO_aw0l6Am-38" vertex="1">
                    <mxGeometry y="153" width="180" height="77" as="geometry"/>
                </mxCell>
                <mxCell id="lP4mGNeKe8PO_aw0l6Am-48" value="Value 7" style="shape=partialRectangle;html=1;whiteSpace=wrap;connectable=0;fillColor=none;top=0;left=0;bottom=0;right=0;overflow=hidden;" parent="lP4mGNeKe8PO_aw0l6Am-47" vertex="1">
                    <mxGeometry width="60" height="77" as="geometry"/>
                </mxCell>
                <mxCell id="lP4mGNeKe8PO_aw0l6Am-49" value="Value 8" style="shape=partialRectangle;html=1;whiteSpace=wrap;connectable=0;fillColor=none;top=0;left=0;bottom=0;right=0;overflow=hidden;" parent="lP4mGNeKe8PO_aw0l6Am-47" vertex="1">
                    <mxGeometry x="60" width="60" height="77" as="geometry"/>
                </mxCell>
                <mxCell id="lP4mGNeKe8PO_aw0l6Am-50" value="Value 9" style="shape=partialRectangle;html=1;whiteSpace=wrap;connectable=0;fillColor=none;top=0;left=0;bottom=0;right=0;overflow=hidden;" parent="lP4mGNeKe8PO_aw0l6Am-47" vertex="1">
                    <mxGeometry x="120" width="60" height="77" as="geometry"/>
                </mxCell>
            </root>
        </mxGraphModel>
    </diagram>
</mxfile>